HIERARCHY
ROOT joint_0
{
	OFFSET 0.000000 0.000000 0.000000
	CHANNELS 6 Xposition Yposition Zposition Zrotation Yrotation Xrotation 
	JOINT joint_1
	{
		OFFSET 0.587158 0.057678 95.682007
		CHANNELS 3 Zrotation Yrotation Xrotation
		JOINT joint_2
		{
			OFFSET -7.116699 -0.219910 87.157959
			CHANNELS 3 Zrotation Yrotation Xrotation
			JOINT joint_3
			{
				OFFSET -5.892822 -0.290222 87.151001
				CHANNELS 3 Zrotation Yrotation Xrotation
				JOINT joint_4
				{
					OFFSET 5.544678 -0.099609 123.768066
					CHANNELS 3 Zrotation Yrotation Xrotation
					JOINT joint_5
					{
						OFFSET 41.981201 4.519775 84.257935
						CHANNELS 3 Zrotation Yrotation Xrotation
						End Site
						{
							OFFSET 0.000000 0.000000 0.000000
						}
					}
				}
				JOINT joint_6
				{
					OFFSET 3.940918 -26.976501 69.308105
					CHANNELS 3 Zrotation Yrotation Xrotation
					JOINT joint_7
					{
						OFFSET 4.776123 -152.592468 -16.842041
						CHANNELS 3 Zrotation Yrotation Xrotation
						JOINT joint_8
						{
							OFFSET 54.421875 -30.424072 -248.864014
							CHANNELS 3 Zrotation Yrotation Xrotation
							JOINT joint_9
							{
								OFFSET 42.120117 -33.387878 -236.524963
								CHANNELS 3 Zrotation Yrotation Xrotation
								End Site
								{
									OFFSET 0.000000 0.000000 0.000000
								}
							}
						}
					}
				}
				JOINT joint_10
				{
					OFFSET 2.312012 26.904114 69.425049
					CHANNELS 3 Zrotation Yrotation Xrotation
					JOINT joint_11
					{
						OFFSET 0.971436 152.197815 -20.626953
						CHANNELS 3 Zrotation Yrotation Xrotation
						JOINT joint_12
						{
							OFFSET 49.954102 28.991455 -249.970093
							CHANNELS 3 Zrotation Yrotation Xrotation
							JOINT joint_13
							{
								OFFSET 48.146973 19.598389 -236.919922
								CHANNELS 3 Zrotation Yrotation Xrotation
								End Site
								{
									OFFSET 0.000000 0.000000 0.000000
								}
							}
						}
					}
				}
			}
		}
	}
	JOINT joint_14
	{
		OFFSET 16.305664 -89.442932 -108.224976
		CHANNELS 3 Zrotation Yrotation Xrotation
		JOINT joint_15
		{
			OFFSET -22.282471 13.437134 -412.904968
			CHANNELS 3 Zrotation Yrotation Xrotation
			JOINT joint_16
			{
				OFFSET -45.426025 14.484802 -445.892029
				CHANNELS 3 Zrotation Yrotation Xrotation
				JOINT joint_17
				{
					OFFSET 173.389404 -9.944031 -76.473001
					CHANNELS 3 Zrotation Yrotation Xrotation
					End Site
					{
						OFFSET 0.000000 0.000000 0.000000
					}
				}
			}
		}
	}
	JOINT joint_18
	{
		OFFSET 13.392822 89.408875 -108.653992
		CHANNELS 3 Zrotation Yrotation Xrotation
		JOINT joint_19
		{
			OFFSET -29.032959 24.483521 -411.977966
			CHANNELS 3 Zrotation Yrotation Xrotation
			JOINT joint_20
			{
				OFFSET -30.530029 28.986328 -446.453018
				CHANNELS 3 Zrotation Yrotation Xrotation
				JOINT joint_21
				{
					OFFSET 170.330078 33.400757 -76.698997
					CHANNELS 3 Zrotation Yrotation Xrotation
					End Site
					{
						OFFSET 0.000000 0.000000 0.000000
					}
				}
			}
		}
	}
}
MOTION
Frames: 6
Frame Time: 0.016667
-1834.580566 942.239319 1059.008057 -0.756812 -1.835846 -0.370412 -0.553035 2.549517 1.720971 -0.755992 -0.523596 -0.392906 -0.710416 0.485333 0.267069 -3.716582 -5.781593 8.192915 0.000000 0.000000 0.000000 -0.647665 2.159892 -2.435209 -0.256789 2.194135 -0.103334 1.324087 -5.279110 3.076556 0.000000 0.000000 0.000000 0.444489 1.583452 -2.357036 0.580430 1.579892 1.525374 -0.486867 -2.848904 -1.260085 0.000000 0.000000 0.000000 -0.500871 -0.392386 -6.185891 -0.830158 1.815564 0.109332 -0.828440 0.563946 -0.327095 0.000000 0.000000 0.000000 1.773590 0.163238 2.769610 1.906953 0.633323 1.587991 2.051188 1.686708 0.585730 0.000000 0.000000 0.000000 
-1834.405518 942.126221 1058.968018 -0.763670 -1.845249 -0.376132 -0.549758 2.543984 1.717657 -0.752203 -0.523653 -0.392437 -0.706631 0.487176 0.267170 -3.718798 -5.777840 8.197162 0.000000 0.000000 0.000000 -0.634110 2.158494 -2.396499 -0.267091 2.192396 -0.150224 1.321033 -5.267560 3.070085 0.000000 0.000000 0.000000 0.445126 1.585900 -2.376502 0.589728 1.583124 1.571337 -0.486650 -2.845745 -1.260145 0.000000 0.000000 0.000000 -0.499572 -0.376675 -6.182427 -0.829887 1.824470 0.124838 -0.827125 0.556012 -0.326994 0.000000 0.000000 0.000000 1.774084 0.173337 2.785772 1.909529 0.656566 1.586406 2.051248 1.674249 0.588177 0.000000 0.000000 0.000000 
-1834.242554 942.012390 1058.928955 -0.765142 -1.856508 -0.383847 -0.548344 2.541077 1.718275 -0.750779 -0.523245 -0.394356 -0.704945 0.487278 0.268632 -3.720960 -5.776328 8.201601 0.000000 0.000000 0.000000 -0.619046 2.158118 -2.359016 -0.277674 2.191887 -0.198191 1.319467 -5.262933 3.066220 0.000000 0.000000 0.000000 0.443238 1.587990 -2.395539 0.598786 1.586311 1.616366 -0.486547 -2.840830 -1.261507 0.000000 0.000000 0.000000 -0.499509 -0.361039 -6.173380 -0.829958 1.837333 0.134131 -0.826898 0.547612 -0.327393 0.000000 0.000000 0.000000 1.772504 0.180914 2.802529 1.910367 0.685293 1.587943 2.049425 1.660595 0.590014 0.000000 0.000000 0.000000 
-1834.084839 941.899841 1058.890015 -0.765064 -1.868086 -0.392176 -0.548113 2.537530 1.719624 -0.750477 -0.520574 -0.395175 -0.704525 0.486519 0.269005 -3.723039 -5.775053 8.206017 0.000000 0.000000 0.000000 -0.602928 2.157297 -2.322022 -0.288246 2.191067 -0.246362 1.318447 -5.260185 3.063744 0.000000 0.000000 0.000000 0.440584 1.589837 -2.413447 0.607473 1.589330 1.659554 -0.486357 -2.835966 -1.262446 0.000000 0.000000 0.000000 -0.499770 -0.346158 -6.162234 -0.829953 1.852212 0.140682 -0.826964 0.538081 -0.327983 0.000000 0.000000 0.000000 1.770660 0.187754 2.819287 1.910965 0.714630 1.590446 2.047429 1.647285 0.591706 0.000000 0.000000 0.000000 
-1833.931152 941.794739 1058.852051 -0.766548 -1.880234 -0.399021 -0.547685 2.539372 1.719924 -0.750015 -0.521728 -0.395695 -0.703990 0.487578 0.269302 -3.724252 -5.774065 8.208732 0.000000 0.000000 0.000000 -0.588542 2.154982 -2.287189 -0.298091 2.188643 -0.292101 1.318102 -5.259336 3.063257 0.000000 0.000000 0.000000 0.438108 1.590020 -2.432946 0.616005 1.590632 1.702939 -0.486241 -2.831175 -1.263719 0.000000 0.000000 0.000000 -0.499530 -0.329882 -6.153910 -0.829863 1.864659 0.148696 -0.826707 0.529322 -0.328387 0.000000 0.000000 0.000000 1.769703 0.195756 2.834108 1.912178 0.743111 1.592725 2.046070 1.634022 0.593674 0.000000 0.000000 0.000000 
-1833.776245 941.701965 1058.814941 -0.771831 -1.891605 -0.403813 -0.546704 2.542643 1.718479 -0.748847 -0.523225 -0.395162 -0.702897 0.490461 0.268520 -3.723776 -5.770620 8.207751 0.000000 0.000000 0.000000 -0.576647 2.149980 -2.256535 -0.306408 2.183433 -0.332180 1.317901 -5.257667 3.063945 0.000000 0.000000 0.000000 0.436611 1.588030 -2.454495 0.624330 1.589597 1.746717 -0.485964 -2.825998 -1.264341 0.000000 0.000000 0.000000 -0.498464 -0.311913 -6.150748 -0.829816 1.871285 0.160882 -0.825825 0.523076 -0.328375 0.000000 0.000000 0.000000 1.770687 0.205591 2.845851 1.914713 0.767839 1.595273 2.046301 1.621600 0.596189 0.000000 0.000000 0.000000 
